<?xml version="1.0" encoding="utf-8"?>
<!-- Generator: Adobe Illustrator 27.0.0, SVG Export Plug-In . SVG Version: 6.00 Build 0)  -->
<svg version="1.1" id="Capa_1" xmlns="http://www.w3.org/2000/svg" xmlns:xlink="http://www.w3.org/1999/xlink" x="0px" y="0px"
	 viewBox="0 0 32 32" style="enable-background:new 0 0 32 32;" xml:space="preserve">
<style type="text/css">
	.st0{fill:none;stroke:#E1DBD1;stroke-linecap:round;stroke-linejoin:round;}
</style>
<path class="st0" d="M29.24,7.92c-1.01,0.42-2.09,0.69-3.18,0.79c1.1-0.68,1.94-1.7,2.38-2.91c-1.06,0.63-2.23,1.08-3.44,1.32
	c-0.96-1.11-2.37-1.74-3.84-1.72c-2.95-0.05-5.38,2.3-5.43,5.26c0,0.01,0,0.03,0,0.04c-0.02,0.4,0.02,0.8,0.13,1.19
	c-4.24-0.13-8.21-2.12-10.86-5.43c-0.56,0.77-0.84,1.7-0.79,2.65c0.01,1.8,0.9,3.48,2.38,4.5c-0.83-0.12-1.64-0.39-2.38-0.79v0.13
	c-0.15,2.52,1.62,4.75,4.11,5.17c-0.48,0.12-0.97,0.16-1.46,0.13c-0.36,0.02-0.72-0.02-1.06-0.13c0.69,2.2,2.73,3.7,5.03,3.71
	c-1.94,1.48-4.31,2.28-6.75,2.25c-0.45,0.02-0.89-0.02-1.32-0.13c2.78,1.85,6.07,2.78,9.4,2.65c9.93,0,14.44-8.21,14.44-15.23V10.7
	C27.64,9.95,28.54,9,29.24,7.92z"/>
</svg>
